<svg width="32" height="50" viewBox="0 0 32 50" fill="none" xmlns="http://www.w3.org/2000/svg">
<g clip-path="url(#clip0_1_3664)">
<path d="M15.9999 50C17.8934 50 19.4284 49.2538 19.4284 48.3333C19.4284 47.4128 17.8934 46.6667 15.9999 46.6667C14.1063 46.6667 12.5713 47.4128 12.5713 48.3333C12.5713 49.2538 14.1063 50 15.9999 50Z" fill="#6C67CE"/>
<ellipse cx="16" cy="15.5556" rx="16" ry="15.5556" fill="#E5A971"/>
<path d="M21.7142 15.5556C21.7142 12.4873 19.1558 10 15.9999 10C12.844 10 10.2856 12.4873 10.2856 15.5556C10.2856 18.6238 12.844 21.1111 15.9999 21.1111C19.1558 21.1111 21.7142 18.6238 21.7142 15.5556Z" fill="white"/>
<rect x="14.8569" y="30" width="2.28571" height="18.8889" rx="1.14286" fill="#E5A971"/>
</g>
<defs>
<clipPath id="clip0_1_3664">
<rect width="32" height="50" fill="white"/>
</clipPath>
</defs>
</svg>
