<svg width="27" height="43" viewBox="0 0 27 43" fill="none" xmlns="http://www.w3.org/2000/svg">
<g clip-path="url(#clip0_1_3679)">
<path d="M13.4998 43.0002C15.0975 43.0002 16.3926 42.3584 16.3926 41.5668C16.3926 40.7752 15.0975 40.1335 13.4998 40.1335C11.9021 40.1335 10.6069 40.7752 10.6069 41.5668C10.6069 42.3584 11.9021 43.0002 13.4998 43.0002Z" fill="#546FFC"/>
<ellipse cx="13.5" cy="13.3778" rx="13.5" ry="13.3778" fill="#9AAAFF"/>
<path d="M18.3216 13.3778C18.3216 10.7391 16.1629 8.60001 13.5001 8.60001C10.8373 8.60001 8.67871 10.7391 8.67871 13.3778C8.67871 16.0165 10.8373 18.1556 13.5001 18.1556C16.1629 18.1556 18.3216 16.0165 18.3216 13.3778Z" fill="white"/>
<rect x="12.5356" y="25.8" width="1.92857" height="16.2444" rx="0.964286" fill="#9AAAFF"/>
</g>
<defs>
<clipPath id="clip0_1_3679">
<rect width="27" height="43" fill="white"/>
</clipPath>
</defs>
</svg>
